<?xml version="1.0" encoding="UTF-8" standalone="no"?>
<!-- Created with Inkscape (http://www.inkscape.org/) -->

<svg
   xmlns:dc="http://purl.org/dc/elements/1.1/"
   xmlns:cc="http://creativecommons.org/ns#"
   xmlns:rdf="http://www.w3.org/1999/02/22-rdf-syntax-ns#"
   xmlns:svg="http://www.w3.org/2000/svg"
   xmlns="http://www.w3.org/2000/svg"
   xmlns:sodipodi="http://sodipodi.sourceforge.net/DTD/sodipodi-0.dtd"
   xmlns:inkscape="http://www.inkscape.org/namespaces/inkscape"
   width="184.45161mm"
   height="184.45161mm"
   viewBox="0 0 653.56871 653.56871"
   id="svg4154"
   version="1.1"
   inkscape:version="0.91 r13725"
   sodipodi:docname="icon.svg">
  <defs
     id="defs4156">
    <clipPath
       clipPathUnits="userSpaceOnUse"
       id="clipPath4866">
      <rect
         style="fill:#000000;fill-opacity:0.53488375;stroke:none;stroke-width:1;stroke-linecap:round;stroke-linejoin:round;stroke-miterlimit:4;stroke-dasharray:none;stroke-opacity:1"
         id="rect4868"
         width="665.71429"
         height="665.71429"
         x="2.1429477"
         y="200.93364"
         ry="87.14286" />
    </clipPath>
    <clipPath
       clipPathUnits="userSpaceOnUse"
       id="clipPath4916">
      <rect
         style="fill:#000000;fill-opacity:0.53488375;stroke:none;stroke-width:1;stroke-linecap:round;stroke-linejoin:round;stroke-miterlimit:4;stroke-dasharray:none;stroke-opacity:1"
         id="rect4918"
         width="653.56873"
         height="653.56873"
         x="7.5014377"
         y="204.96815"
         ry="66.670067" />
    </clipPath>
  </defs>
  <sodipodi:namedview
     id="base"
     pagecolor="#ffffff"
     bordercolor="#666666"
     borderopacity="1.0"
     inkscape:pageopacity="0.0"
     inkscape:pageshadow="2"
     inkscape:zoom="0.98994949"
     inkscape:cx="-311.25039"
     inkscape:cy="210.06128"
     inkscape:document-units="px"
     inkscape:current-layer="layer1"
     showgrid="false"
     fit-margin-top="0"
     fit-margin-left="0"
     fit-margin-right="0"
     fit-margin-bottom="0"
     inkscape:window-width="3840"
     inkscape:window-height="2097"
     inkscape:window-x="-8"
     inkscape:window-y="-8"
     inkscape:window-maximized="1" />
  <metadata
     id="metadata4159">
    <rdf:RDF>
      <cc:Work
         rdf:about="">
        <dc:format>image/svg+xml</dc:format>
        <dc:type
           rdf:resource="http://purl.org/dc/dcmitype/StillImage" />
        <dc:title></dc:title>
      </cc:Work>
    </rdf:RDF>
  </metadata>
  <g
     inkscape:label="Layer 1"
     inkscape:groupmode="layer"
     id="layer1"
     transform="translate(-7.5014377,-204.96815)">
    <g
       id="g4891"
       clip-path="url(#clipPath4916)"
       inkscape:export-filename="E:\wrk\unity\clobrdo\Assets\icon.png"
       inkscape:export-xdpi="35.252605"
       inkscape:export-ydpi="35.252605">
      <g
         transform="translate(-1414.2863,-256.76159)"
         id="g4284">
        <rect
           y="438.7666"
           x="1399.2864"
           height="350"
           width="350"
           id="rect4190"
           style="fill:#bbbbbb;fill-opacity:1;stroke:none;stroke-width:5;stroke-linecap:round;stroke-linejoin:round;stroke-miterlimit:4;stroke-dasharray:none;stroke-opacity:1" />
        <path
           inkscape:connector-curvature="0"
           id="path4194"
           d="m 1574.2862,486.64844 a 71.428574,71.428574 0 0 0 -71.4296,71.42773 71.428574,71.428574 0 0 0 44.2754,66.03321 l -20.6583,33.96289 -44.1738,80.71289 91.9863,2.09961 91.9864,-2.09961 -44.1758,-80.71289 -20.6699,-33.98438 a 71.428574,71.428574 0 0 0 44.2871,-66.01172 71.428574,71.428574 0 0 0 -71.4278,-71.42773 z"
           style="fill:#2099e8;fill-opacity:1;stroke:#000000;stroke-width:5;stroke-linecap:round;stroke-linejoin:round;stroke-miterlimit:4;stroke-dasharray:none;stroke-opacity:1" />
        <path
           inkscape:connector-curvature="0"
           id="path4196"
           d="m 1542.1007,496.66602 c -24.1893,10.86479 -37.622,35.97105 -37.6582,62.48828 0.015,22.85648 11.6074,44.14938 30.7969,56.5664 l -3.0371,-0.0684 a 71.428574,71.428574 0 0 0 14.9297,8.45704 l -20.6583,33.96289 -44.1738,80.71289 26.2559,0.59961 55.7832,-113.25782 c 0.069,0.01 0.138,0.0196 0.207,0.0293 l 0,-0.44727 4.5449,-9.22851 1.795,-4.38672 -6.3399,-1.30273 c -25.8625,-10.08472 -42.9017,-34.98887 -42.9316,-62.74805 0.025,-19.22768 6.1159,-38.60214 20.4863,-51.37695 z"
           style="fill:#ffffff;fill-opacity:0.38139535;stroke:none;stroke-width:5;stroke-linecap:round;stroke-linejoin:round;stroke-miterlimit:4;stroke-dasharray:none;stroke-opacity:1" />
        <path
           inkscape:connector-curvature="0"
           style="fill:none;fill-opacity:1;stroke:#000000;stroke-width:5;stroke-linecap:round;stroke-linejoin:round;stroke-miterlimit:4;stroke-dasharray:none;stroke-opacity:1"
           d="m 1574.2862,486.64844 a 71.428574,71.428574 0 0 0 -71.4296,71.42773 71.428574,71.428574 0 0 0 44.2754,66.03321 l -20.6583,33.96289 -44.1738,80.71289 91.9863,2.09961 91.9864,-2.09961 -44.1758,-80.71289 -20.6699,-33.98438 a 71.428574,71.428574 0 0 0 44.2871,-66.01172 71.428574,71.428574 0 0 0 -71.4278,-71.42773 z"
           id="path4198" />
      </g>
      <g
         transform="translate(-684.2862,-256.76159)"
         id="g4278">
        <rect
           style="fill:#bbbbbb;fill-opacity:1;stroke:none;stroke-width:5;stroke-linecap:round;stroke-linejoin:round;stroke-miterlimit:4;stroke-dasharray:none;stroke-opacity:1"
           id="rect4180"
           width="350"
           height="350"
           x="1017.8577"
           y="438.7666" />
        <path
           style="fill:#ffe200;fill-opacity:1;stroke:#000000;stroke-width:5;stroke-linecap:round;stroke-linejoin:round;stroke-miterlimit:4;stroke-dasharray:none;stroke-opacity:1"
           d="m 1194.2863,486.64844 a 71.428574,71.428574 0 0 0 -71.4297,71.42773 71.428574,71.428574 0 0 0 44.2754,66.03321 l -20.6582,33.96289 -44.1739,80.71289 91.9864,2.09961 91.9863,-2.09961 -44.1758,-80.71289 -20.6699,-33.98438 a 71.428574,71.428574 0 0 0 44.2871,-66.01172 71.428574,71.428574 0 0 0 -71.4277,-71.42773 z"
           id="path4184"
           inkscape:connector-curvature="0" />
        <path
           style="fill:#6c6c6c;fill-opacity:0.38139535;stroke:none;stroke-width:5;stroke-linecap:round;stroke-linejoin:round;stroke-miterlimit:4;stroke-dasharray:none;stroke-opacity:1"
           d="m 1162.1007,496.66602 c -24.1892,10.86479 -37.6219,35.97105 -37.6582,62.48828 0.015,22.85648 11.6074,44.14938 30.7969,56.5664 l -3.0371,-0.0684 a 71.428574,71.428574 0 0 0 14.9297,8.45704 l -20.6582,33.96289 -44.1739,80.71289 26.2559,0.59961 55.7832,-113.25782 c 0.069,0.01 0.138,0.0196 0.207,0.0293 l 0,-0.44727 4.545,-9.22851 1.7949,-4.38672 -6.3399,-1.30273 c -25.8625,-10.08472 -42.9017,-34.98887 -42.9316,-62.74805 0.025,-19.22768 6.1159,-38.60214 20.4863,-51.37695 z"
           id="path4186"
           inkscape:connector-curvature="0" />
        <path
           id="path4188"
           d="m 1194.2863,486.64844 a 71.428574,71.428574 0 0 0 -71.4297,71.42773 71.428574,71.428574 0 0 0 44.2754,66.03321 l -20.6582,33.96289 -44.1739,80.71289 91.9864,2.09961 91.9863,-2.09961 -44.1758,-80.71289 -20.6699,-33.98438 a 71.428574,71.428574 0 0 0 44.2871,-66.01172 71.428574,71.428574 0 0 0 -71.4277,-71.42773 z"
           style="fill:none;fill-opacity:1;stroke:#000000;stroke-width:5;stroke-linecap:round;stroke-linejoin:round;stroke-miterlimit:4;stroke-dasharray:none;stroke-opacity:1"
           inkscape:connector-curvature="0" />
      </g>
      <g
         transform="translate(-145.71477,92.733434)"
         id="g4265">
        <rect
           style="fill:#bbbbbb;fill-opacity:1;stroke:none;stroke-width:5;stroke-linecap:round;stroke-linejoin:round;stroke-miterlimit:4;stroke-dasharray:none;stroke-opacity:1"
           id="rect4168"
           width="350"
           height="350"
           x="130.71484"
           y="438.7666" />
        <g
           id="g4161">
          <path
             inkscape:connector-curvature="0"
             id="path4136"
             d="m 305.71484,486.64844 a 71.428574,71.428574 0 0 0 -71.42968,71.42773 71.428574,71.428574 0 0 0 44.27539,66.03321 l -20.65821,33.96289 -44.17382,80.71289 91.98632,2.09961 91.98633,-2.09961 -44.17578,-80.71289 -20.66992,-33.98438 a 71.428574,71.428574 0 0 0 44.28711,-66.01172 71.428574,71.428574 0 0 0 -71.42774,-71.42773 z"
             style="fill:#ff0600;fill-opacity:1;stroke:#000000;stroke-width:5;stroke-linecap:round;stroke-linejoin:round;stroke-miterlimit:4;stroke-dasharray:none;stroke-opacity:1" />
          <path
             inkscape:connector-curvature="0"
             id="path4144"
             d="m 273.5293,496.66602 c -24.18927,10.86479 -37.62198,35.97105 -37.65821,62.48828 0.0147,22.85648 11.60739,44.14938 30.79688,56.5664 l -3.03711,-0.0684 a 71.428574,71.428574 0 0 0 14.92969,8.45704 l -20.65821,33.96289 -44.17382,80.71289 26.25586,0.59961 55.7832,-113.25782 c 0.069,0.01 0.138,0.0196 0.20703,0.0293 l 0,-0.44727 4.54492,-9.22851 1.79492,-4.38672 -6.33984,-1.30273 c -25.86255,-10.08472 -42.90174,-34.98887 -42.93164,-62.74805 0.0255,-19.22768 6.11593,-38.60214 20.48633,-51.37695 z"
             style="fill:#ffffff;fill-opacity:0.38139535;stroke:none;stroke-width:5;stroke-linecap:round;stroke-linejoin:round;stroke-miterlimit:4;stroke-dasharray:none;stroke-opacity:1" />
          <path
             inkscape:connector-curvature="0"
             style="fill:none;fill-opacity:1;stroke:#000000;stroke-width:5;stroke-linecap:round;stroke-linejoin:round;stroke-miterlimit:4;stroke-dasharray:none;stroke-opacity:1"
             d="m 305.71484,486.64844 a 71.428574,71.428574 0 0 0 -71.42968,71.42773 71.428574,71.428574 0 0 0 44.27539,66.03321 l -20.65821,33.96289 -44.17382,80.71289 91.98632,2.09961 91.98633,-2.09961 -44.17578,-80.71289 -20.66992,-33.98438 a 71.428574,71.428574 0 0 0 44.28711,-66.01172 71.428574,71.428574 0 0 0 -71.42774,-71.42773 z"
             id="path4159" />
        </g>
      </g>
      <g
         transform="translate(-217.14332,92.733434)"
         id="g4272">
        <rect
           y="438.7666"
           x="550.71484"
           height="350"
           width="350"
           id="rect4170"
           style="fill:#bbbbbb;fill-opacity:1;stroke:none;stroke-width:5;stroke-linecap:round;stroke-linejoin:round;stroke-miterlimit:4;stroke-dasharray:none;stroke-opacity:1" />
        <path
           inkscape:connector-curvature="0"
           id="path4174"
           d="m 725.71484,486.64844 a 71.428574,71.428574 0 0 0 -71.42968,71.42773 71.428574,71.428574 0 0 0 44.27539,66.03321 l -20.65821,33.96289 -44.17382,80.71289 91.98632,2.09961 91.98633,-2.09961 -44.17578,-80.71289 -20.66992,-33.98438 a 71.428574,71.428574 0 0 0 44.28711,-66.01172 71.428574,71.428574 0 0 0 -71.42774,-71.42773 z"
           style="fill:#3db700;fill-opacity:1;stroke:#000000;stroke-width:5;stroke-linecap:round;stroke-linejoin:round;stroke-miterlimit:4;stroke-dasharray:none;stroke-opacity:1" />
        <path
           inkscape:connector-curvature="0"
           id="path4176"
           d="m 693.5293,496.66602 c -24.18927,10.86479 -37.62198,35.97105 -37.65821,62.48828 0.0147,22.85648 11.60739,44.14938 30.79688,56.5664 l -3.03711,-0.0684 a 71.428574,71.428574 0 0 0 14.92969,8.45704 l -20.65821,33.96289 -44.17382,80.71289 26.25586,0.59961 55.7832,-113.25782 c 0.069,0.01 0.138,0.0196 0.20703,0.0293 l 0,-0.44727 4.54492,-9.22851 1.79492,-4.38672 -6.33984,-1.30273 c -25.86255,-10.08472 -42.90174,-34.98887 -42.93164,-62.74805 0.0255,-19.22768 6.11593,-38.60214 20.48633,-51.37695 z"
           style="fill:#ffffff;fill-opacity:0.38139535;stroke:none;stroke-width:5;stroke-linecap:round;stroke-linejoin:round;stroke-miterlimit:4;stroke-dasharray:none;stroke-opacity:1" />
        <path
           inkscape:connector-curvature="0"
           style="fill:none;fill-opacity:1;stroke:#000000;stroke-width:5;stroke-linecap:round;stroke-linejoin:round;stroke-miterlimit:4;stroke-dasharray:none;stroke-opacity:1"
           d="m 725.71484,486.64844 a 71.428574,71.428574 0 0 0 -71.42968,71.42773 71.428574,71.428574 0 0 0 44.27539,66.03321 l -20.65821,33.96289 -44.17382,80.71289 91.98632,2.09961 91.98633,-2.09961 -44.17578,-80.71289 -20.66992,-33.98438 a 71.428574,71.428574 0 0 0 44.28711,-66.01172 71.428574,71.428574 0 0 0 -71.42774,-71.42773 z"
           id="path4178" />
      </g>
    </g>
    <g
       id="g4283"
       transform="matrix(2.3693874,0,0,2.3693874,-1723.959,-335.70275)"
       inkscape:export-filename="E:\wrk\unity\clobrdo\Assets\icon.png"
       inkscape:export-xdpi="35.252605"
       inkscape:export-ydpi="35.252605">
      <rect
         style="fill:#7c7c7c;fill-opacity:1;stroke:#000000;stroke-width:3;stroke-linecap:round;stroke-linejoin:round;stroke-miterlimit:4;stroke-dasharray:none;stroke-opacity:1"
         id="rect4148"
         width="107.58125"
         height="107.58125"
         x="815.19312"
         y="312.42548"
         ry="11.0543" />
      <g
         transform="translate(4.0406265,0.50514984)"
         id="g4238">
        <g
           id="g4233">
          <circle
             r="11.364216"
             cy="337.93176"
             cx="842.71979"
             id="circle4178"
             style="fill:#ffffff;fill-opacity:1;stroke:#000000;stroke-width:1;stroke-linecap:round;stroke-linejoin:round;stroke-miterlimit:4;stroke-dasharray:none;stroke-opacity:1" />
          <circle
             style="fill:#ffffff;fill-opacity:1;stroke:#000000;stroke-width:1;stroke-linecap:round;stroke-linejoin:round;stroke-miterlimit:4;stroke-dasharray:none;stroke-opacity:1"
             id="circle4180"
             cx="842.71979"
             cy="365.71094"
             r="11.364216" />
          <circle
             r="11.364216"
             cy="393.49014"
             cx="842.71979"
             id="circle4182"
             style="fill:#ffffff;fill-opacity:1;stroke:#000000;stroke-width:1;stroke-linecap:round;stroke-linejoin:round;stroke-miterlimit:4;stroke-dasharray:none;stroke-opacity:1" />
        </g>
        <circle
           r="11.364216"
           cy="393.49014"
           cx="887.16644"
           id="circle4184"
           style="fill:#ffffff;fill-opacity:1;stroke:#000000;stroke-width:1;stroke-linecap:round;stroke-linejoin:round;stroke-miterlimit:4;stroke-dasharray:none;stroke-opacity:1" />
        <circle
           style="fill:#ffffff;fill-opacity:1;stroke:#000000;stroke-width:1;stroke-linecap:round;stroke-linejoin:round;stroke-miterlimit:4;stroke-dasharray:none;stroke-opacity:1"
           id="circle4186"
           cx="887.16644"
           cy="365.71097"
           r="11.364216" />
        <circle
           r="11.364216"
           cy="337.93176"
           cx="887.16644"
           id="circle4188"
           style="fill:#ffffff;fill-opacity:1;stroke:#000000;stroke-width:1;stroke-linecap:round;stroke-linejoin:round;stroke-miterlimit:4;stroke-dasharray:none;stroke-opacity:1" />
      </g>
    </g>
  </g>
</svg>
